<svg xmlns="http://www.w3.org/2000/svg" viewBox="0 0 612 612"><rect width="612" height="612" rx="125" ry="125" style="fill:#ba2e2c;stroke-width:0"/><path d="M266.63 198.19h-11.07a3.92 3.92 0 0 0-3.92 3.92v27.96c0 3.4-4.03 5.18-6.55 2.91l-44.13-44.96a3.91 3.91 0 0 0-5.53.28l-7.42 8.21a3.91 3.91 0 0 0 .28 5.53L230 244.82c2.66 2.41.96 6.82-2.63 6.82h-25.26a3.92 3.92 0 0 0-3.92 3.92v11.07a3.92 3.92 0 0 0 3.92 3.92h64.52a3.92 3.92 0 0 0 3.92-3.92v-64.52a3.92 3.92 0 0 0-3.92-3.92ZM345.37 198.19h11.07a3.92 3.92 0 0 1 3.92 3.92v27.96c0 3.4 4.03 5.18 6.55 2.91l44.13-44.96a3.91 3.91 0 0 1 5.53.28l7.42 8.21a3.91 3.91 0 0 1-.28 5.53L382 244.82c-2.66 2.41-.96 6.82 2.63 6.82h25.26a3.92 3.92 0 0 1 3.92 3.92v11.07a3.92 3.92 0 0 1-3.92 3.92h-64.52a3.92 3.92 0 0 1-3.92-3.92v-64.52a3.92 3.92 0 0 1 3.92-3.92ZM266.63 413.81h-11.07a3.92 3.92 0 0 1-3.92-3.92v-27.96c0-3.4-4.03-5.18-6.55-2.91l-44.13 44.96a3.91 3.91 0 0 1-5.53-.28l-7.42-8.21a3.91 3.91 0 0 1 .28-5.53L230 367.18c2.66-2.41.96-6.82-2.63-6.82h-25.26a3.92 3.92 0 0 1-3.92-3.92v-11.07a3.92 3.92 0 0 1 3.92-3.92h64.52a3.92 3.92 0 0 1 3.92 3.92v64.52a3.92 3.92 0 0 1-3.92 3.92ZM345.37 413.81h11.07a3.92 3.92 0 0 0 3.92-3.92v-27.96c0-3.4 4.03-5.18 6.55-2.91l44.13 44.96a3.91 3.91 0 0 0 5.53-.28l7.42-8.21a3.91 3.91 0 0 0-.28-5.53L382 367.18c-2.66-2.41-.96-6.82 2.63-6.82h25.26a3.92 3.92 0 0 0 3.92-3.92v-11.07a3.92 3.92 0 0 0-3.92-3.92h-64.52a3.92 3.92 0 0 0-3.92 3.92v64.52a3.92 3.92 0 0 0 3.92 3.92ZM459.89 219.96l-7.83 7.83a3.917 3.917 0 0 0 0 5.54l56.53 56.53c2.47 2.47.72 6.69-2.77 6.69H396.08a3.92 3.92 0 0 0-3.92 3.92v11.07a3.92 3.92 0 0 0 3.92 3.92h109.74c3.49 0 5.24 4.22 2.77 6.69l-56.53 56.53a3.917 3.917 0 0 0 0 5.54l7.83 7.83a3.917 3.917 0 0 0 5.54 0l83.27-83.27a3.917 3.917 0 0 0 0-5.54l-83.27-83.27a3.917 3.917 0 0 0-5.54 0ZM315.45 505.82V396.08a3.92 3.92 0 0 0-3.92-3.92h-11.07a3.92 3.92 0 0 0-3.92 3.92v109.74c0 3.49-4.22 5.24-6.69 2.77l-56.53-56.53a3.917 3.917 0 0 0-5.54 0l-7.83 7.83a3.917 3.917 0 0 0 0 5.54l83.27 83.27a3.917 3.917 0 0 0 5.54 0l83.27-83.27a3.917 3.917 0 0 0 0-5.54l-7.83-7.83a3.917 3.917 0 0 0-5.54 0l-56.53 56.53c-2.47 2.47-6.69.72-6.69-2.77ZM219.84 311.54v-11.07a3.92 3.92 0 0 0-3.92-3.92H106.18c-3.49 0-5.24-4.22-2.77-6.69l56.53-56.53a3.917 3.917 0 0 0 0-5.54l-7.83-7.83a3.917 3.917 0 0 0-5.54 0L63.3 303.23a3.917 3.917 0 0 0 0 5.54l83.26 83.27a3.917 3.917 0 0 0 5.54 0l7.83-7.83a3.917 3.917 0 0 0 0-5.54l-56.53-56.53c-2.47-2.47-.72-6.69 2.77-6.69h109.74a3.92 3.92 0 0 0 3.92-3.92ZM296.55 106.18v109.74a3.92 3.92 0 0 0 3.92 3.92h11.07a3.92 3.92 0 0 0 3.92-3.92V106.18c0-3.49 4.22-5.24 6.69-2.77l56.52 56.53a3.917 3.917 0 0 0 5.54 0l7.83-7.83a3.917 3.917 0 0 0 0-5.54L308.77 63.3a3.917 3.917 0 0 0-5.54 0l-83.27 83.27a3.917 3.917 0 0 0 0 5.54l7.83 7.83a3.917 3.917 0 0 0 5.54 0l56.53-56.53c2.47-2.47 6.69-.72 6.69 2.77Z" style="fill:#fff;stroke-width:0"/></svg>