<svg xmlns="http://www.w3.org/2000/svg" id="Layer_2" viewBox="0 0 867.21 867.21"><defs/><g id="Artwork"><path d="M382.42 241.29h-22.83c-4.46 0-8.08 3.62-8.08 8.08v57.65c0 7-8.3 10.69-13.5 5.99l-52.79-47.71a8.08 8.08 0 0 0-11.41.58l-15.31 16.94a8.08 8.08 0 0 0 .58 11.41l47.81 43.21c5.49 4.96 1.98 14.07-5.42 14.07h-52.1c-4.46 0-8.08 3.62-8.08 8.08v22.83c0 4.46 3.62 8.08 8.08 8.08h133.05c4.46 0 8.08-3.62 8.08-8.08V249.37c0-4.46-3.62-8.08-8.08-8.08ZM476.72 249.37v133.05c0 4.46 3.62 8.08 8.08 8.08h133.05c4.46 0 8.08-3.62 8.08-8.08v-22.83c0-4.46-3.62-8.08-8.08-8.08h-52.1c-7.4 0-10.91-9.11-5.42-14.07l47.81-43.21a8.08 8.08 0 0 0 .58-11.41l-15.31-16.94a8.08 8.08 0 0 0-11.41-.58l-52.79 47.71c-5.2 4.7-13.5 1.01-13.5-5.99v-57.65c0-4.46-3.62-8.08-8.08-8.08H484.8c-4.46 0-8.08 3.62-8.08 8.08Z" class="cls-1"/><path d="m681.71 256.18-16.14 16.14a8.076 8.076 0 0 0 0 11.43l116.57 116.57c5.09 5.09 1.49 13.79-5.71 13.79H550.12c-4.46 0-8.08 3.62-8.08 8.08v22.83c0 4.46 3.62 8.08 8.08 8.08h226.31c7.2 0 10.8 8.7 5.71 13.79L665.57 583.46a8.076 8.076 0 0 0 0 11.43l16.14 16.14c3.16 3.16 8.27 3.15 11.43 0l171.71-171.71a8.076 8.076 0 0 0 0-11.43L693.14 256.18a8.076 8.076 0 0 0-11.43 0ZM453.1 776.42V550.11c0-4.46-3.62-8.08-8.08-8.08h-22.83c-4.46 0-8.08 3.62-8.08 8.08v226.31c0 7.2-8.7 10.8-13.79 5.71L283.75 665.56a8.076 8.076 0 0 0-11.43 0l-16.14 16.14a8.076 8.076 0 0 0 0 11.43l171.71 171.71a8.076 8.076 0 0 0 11.43 0l171.71-171.71a8.076 8.076 0 0 0 0-11.43l-16.14-16.14c-3.16-3.16-8.27-3.15-11.43 0L466.89 782.13c-5.09 5.09-13.79 1.49-13.79-5.71ZM325.18 445.02v-22.83c0-4.46-3.62-8.08-8.08-8.08H90.79c-7.2 0-10.8-8.7-5.71-13.79l116.57-116.57a8.076 8.076 0 0 0 0-11.43l-16.14-16.14c-3.16-3.16-8.27-3.15-11.43 0L2.37 427.89a8.076 8.076 0 0 0 0 11.43l171.71 171.71a8.076 8.076 0 0 0 11.43 0l16.14-16.14a8.076 8.076 0 0 0 0-11.43L85.08 466.89c-5.09-5.09-1.49-13.79 5.71-13.79h226.3c4.46 0 8.08-3.62 8.08-8.08ZM414.11 90.79V317.1c0 4.46 3.62 8.08 8.08 8.08h22.83c4.46 0 8.08-3.62 8.08-8.08V90.79c0-7.2 8.7-10.8 13.79-5.71l116.56 116.57a8.076 8.076 0 0 0 11.43 0l16.14-16.14a8.076 8.076 0 0 0 0-11.43L439.32 2.37a8.076 8.076 0 0 0-11.43 0L256.18 174.08a8.076 8.076 0 0 0 0 11.43l16.14 16.14c3.16 3.16 8.27 3.15 11.43 0L400.32 85.08c5.09-5.09 13.79-1.49 13.79 5.71Z" class="cls-1"/><path d="m267.21 584.8 16.14 16.14c3.16 3.16 8.27 3.15 11.43 0l42.93-42.93c5.09-5.09 13.79-1.49 13.79 5.71v54.12c0 4.46 3.62 8.08 8.08 8.08h22.83c4.46 0 8.08-3.62 8.08-8.08V484.79c0-4.46-3.62-8.08-8.08-8.08H249.37c-4.46 0-8.08 3.62-8.08 8.08v22.83c0 4.46 3.62 8.08 8.08 8.08h56c7.2 0 10.8 8.7 5.71 13.79l-43.87 43.87a8.076 8.076 0 0 0 0 11.43ZM484.8 625.92h22.83c4.46 0 8.08-3.62 8.08-8.08v-54.12c0-7.2 8.7-10.8 13.79-5.71l42.93 42.93a8.076 8.076 0 0 0 11.43 0L600 584.8a8.076 8.076 0 0 0 0-11.43l-43.87-43.87c-5.09-5.09-1.49-13.79 5.71-13.79h56.01c4.46 0 8.08-3.62 8.08-8.08V484.8c0-4.46-3.62-8.08-8.08-8.08H484.8c-4.46 0-8.08 3.62-8.08 8.08v133.05c0 4.46 3.62 8.08 8.08 8.08Z" class="cls-1"/></g></svg>